<?xml version="1.0" encoding="UTF-8"?>
<svg xmlns="http://www.w3.org/2000/svg" id="Layer_1" data-name="Layer 1" viewBox="0 0 24 24">
  <path d="M10,3.491v.018c0,.271-.22,.491-.491,.491h-.546c-.107,.917-.517,2.904-2.085,4.341,.701,.354,1.574,.595,2.658,.648,.26,.013,.464,.229,.464,.49v.018c0,.281-.235,.505-.516,.491-1.469-.071-2.605-.448-3.484-.986-.879,.538-2.015,.915-3.484,.986-.28,.014-.516-.21-.516-.491v-.018c0-.26,.204-.477,.464-.49,1.085-.054,1.957-.295,2.659-.648-.54-.495-.943-1.055-1.243-1.614-.176-.329,.059-.727,.432-.727,.181,0,.345,.1,.432,.258,.291,.534,.695,1.067,1.257,1.519,1.474-1.185,1.862-2.925,1.964-3.777H2.491c-.271,0-.491-.22-.491-.491v-.018c0-.271,.22-.491,.491-.491h3.009v-.509c0-.271,.22-.491,.491-.491h.018c.271,0,.491,.22,.491,.491v.509h3.009c.271,0,.491,.22,.491,.491Zm2,5.509c0,1.654-1.346,3-3,3H3c-1.654,0-3-1.346-3-3V3C0,1.346,1.346,0,3,0h6c1.654,0,3,1.346,3,3v6Zm-1-6c0-1.103-.897-2-2-2H3C1.897,1,1,1.897,1,3v6c0,1.103,.897,2,2,2h6c1.103,0,2-.897,2-2V3Zm13,12v6c0,1.654-1.346,3-3,3h-6c-1.654,0-3-1.346-3-3v-6c0-1.654,1.346-3,3-3h6c1.654,0,3,1.346,3,3Zm-1,0c0-1.103-.897-2-2-2h-6c-1.103,0-2,.897-2,2v6c0,1.103,.897,2,2,2h6c1.103,0,2-.897,2-2v-6Zm-2.5-12h-4.21l2.07-2.153c.191-.199,.185-.516-.014-.707-.2-.191-.516-.185-.707,.014l-2.206,2.294c-.58,.581-.58,1.525-.006,2.099l2.212,2.301c.443,.474,1.177-.232,.721-.693l-2.07-2.153h4.21c1.378,0,2.5,1.122,2.5,2.5v3c0,.276,.224,.5,.5,.5s.5-.224,.5-.5v-3c0-1.93-1.57-3.5-3.5-3.5ZM6.36,17.153c-.191-.197-.507-.206-.707-.014-.199,.191-.206,.508-.014,.707l2.069,2.153H3.5c-1.378,0-2.5-1.121-2.5-2.5v-3c0-.276-.224-.5-.5-.5s-.5,.224-.5,.5v3c0,1.93,1.57,3.5,3.5,3.5H7.708l-2.069,2.153c-.456,.461,.278,1.167,.721,.693l2.204-2.294c.58-.58,.58-1.525,.006-2.099l-2.21-2.301Zm13.128-1.957l1.422,6.206c.152,.622-.831,.837-.965,.219l-.374-1.621h-3.115l-.389,1.625c-.139,.616-1.106,.39-.951-.226l1.475-6.252c.309-1.521,2.636-1.494,2.898,.049Zm-.148,3.804l-.827-3.58c-.084-.549-.835-.545-.949-.047l-.869,3.627h2.645Z"/>
</svg>
